Coordinates
version=1
nRows=11
nColumns=63
inDegrees=yes

Units are S.I. units (second, meters, Newtons, ...)
If the header above contains a line with 'inDegrees', this indicates whether rotational values are in degrees (yes) or radians (no).

endheader
time	pelvis_tilt	pelvis_list	pelvis_rotation	pelvis_tx	pelvis_ty	pelvis_tz	hip_flexion_r	hip_adduction_r	hip_rotation_r	knee_angle_r	knee_angle_r_beta	ankle_angle_r	subtalar_angle_r	mtp_angle_r	hip_flexion_l	hip_adduction_l	hip_rotation_l	knee_angle_l	knee_angle_l_beta	ankle_angle_l	subtalar_angle_l	mtp_angle_l	L5_S1_Flex_Ext	L5_S1_Lat_Bending	L5_S1_axial_rotation	L4_L5_Flex_Ext	L4_L5_Lat_Bending	L4_L5_axial_rotation	L3_L4_Flex_Ext	L3_L4_Lat_Bending	L3_L4_axial_rotation	L2_L3_Flex_Ext	L2_L3_Lat_Bending	L2_L3_axial_rotation	L1_L2_Flex_Ext	L1_L2_Lat_Bending	L1_L2_axial_rotation	L1_T12_Flex_Ext	L1_T12_Lat_Bending	L1_T12_axial_rotation	Abs_r3	Abs_r2	Abs_r1	Abs_t1	Abs_t2	neck_flexion	neck_bending	neck_rotation	arm_flex_r	arm_add_r	arm_rot_r	elbow_flex_r	pro_sup_r	wrist_flex_r	wrist_dev_r	arm_flex_l	arm_add_l	arm_rot_l	elbow_flex_l	pro_sup_l	wrist_flex_l	wrist_dev_l
3.000000	11.008103	7.693507	97.173036	0.266766	0.703308	0.596157	-1.717216	12.559526	-0.238517	13.241942	0.231115	42.305085	-12.145662	0.000000	4.091021	-15.243333	1.305919	28.243591	0.492944	53.777778	8.335408	0.000000	-0.705179	1.331328	-1.007771	-1.309587	1.770667	-1.070757	-1.158538	3.236991	-1.070757	-0.805949	3.236991	-0.881800	-0.654829	2.714845	-0.818814	-0.402939	2.062227	-0.755828	-5.037020	15.060251	-5.604920	0.000000	0.000000	21.087774	2.368762	7.273209	-179.816008	-156.045465	-49.724053	7.482961	6.096563	-6.062650	-5.518990	1.223631	-13.435557	503.064589	5.642659	10.563187	-5.816122	-3.924929
3.016949	10.726465	7.361311	97.258384	0.266811	0.705083	0.596049	-1.638443	12.264291	-0.258213	12.682515	0.221352	41.796684	-12.279657	0.000000	4.097798	-14.893396	1.201912	27.561059	0.481031	53.065584	8.192817	0.000000	-0.652102	1.275261	-1.073083	-1.211019	1.696097	-1.140150	-1.071339	3.100669	-1.140150	-0.745288	3.100669	-0.938947	-0.605542	2.600511	-0.871880	-0.372611	1.975379	-0.804812	-4.657902	14.426003	-5.968163	0.000000	0.000000	20.626649	2.902234	7.024703	-178.649026	-154.256784	-44.641821	8.545908	5.996372	-4.045083	-6.898852	1.313323	-15.481707	509.884212	5.562411	9.452087	-4.181133	-5.307226
3.033898	10.318223	6.908922	97.267734	0.266824	0.707341	0.595926	-1.468703	11.811892	-0.192146	12.109884	0.211357	41.126254	-12.426332	0.000000	4.060960	-14.362384	1.021483	26.618584	0.464582	52.100765	7.822020	0.000000	-0.582787	1.206216	-1.117326	-1.082293	1.604267	-1.187159	-0.957461	2.932793	-1.187159	-0.666067	2.932793	-0.977661	-0.541176	2.459716	-0.907828	-0.333004	1.868428	-0.837995	-4.162788	13.644956	-6.214234	0.000000	0.000000	20.079604	3.386235	6.749309	-177.306332	-151.673403	-40.798080	9.776398	5.652611	-1.849951	-8.152909	1.429563	-18.355500	515.509649	5.621016	8.543858	-2.725808	-6.709719
3.050847	9.790524	6.367054	97.186893	0.266860	0.710015	0.595708	-1.235107	11.215309	-0.031915	11.552998	0.201638	40.323269	-12.569598	0.000000	3.948390	-13.668760	0.733676	25.438768	0.443990	50.924201	7.266379	0.000000	-0.501796	1.124620	-1.135742	-0.931886	1.495745	-1.206725	-0.824401	2.734402	-1.206725	-0.573503	2.734402	-0.993774	-0.465968	2.293326	-0.922790	-0.286726	1.742037	-0.851806	-3.584280	12.721931	-6.316654	0.000000	0.000000	19.484591	3.833610	6.438182	-176.341472	-148.276611	-39.292455	11.151483	5.405517	0.489558	-9.135686	1.800691	-22.101796	519.247671	6.029203	8.341549	-1.402809	-8.062926
3.067797	9.167465	5.752289	97.052737	0.266868	0.712967	0.595351	-0.954358	10.504019	0.212902	11.016855	0.192280	39.421180	-12.720188	0.000000	3.782487	-12.846068	0.376551	24.088523	0.420424	49.603588	6.598463	0.000000	-0.409662	1.034738	-1.138478	-0.760783	1.376201	-1.209633	-0.673033	2.515861	-1.209633	-0.468202	2.515861	-0.996168	-0.380412	2.110037	-0.925013	-0.234081	1.602809	-0.853858	-2.926173	11.705159	-6.331873	0.000000	0.000000	18.841327	4.204953	6.143308	-175.450326	-144.099078	-39.649385	12.666017	5.290691	2.994910	-9.772190	2.546897	-26.603121	521.676301	6.779471	8.205572	0.043732	-9.239931
3.084746	8.477598	5.108758	96.841147	0.266886	0.716053	0.594872	-0.646951	9.713123	0.562764	10.553931	0.184201	38.466436	-12.873889	0.000000	3.554083	-11.934405	-0.060768	22.647111	0.395267	48.206215	5.862119	0.000000	-0.313757	0.940744	-1.124643	-0.582678	1.251189	-1.194933	-0.515471	2.287324	-1.194933	-0.358593	2.287324	-0.984062	-0.291355	1.918365	-0.913772	-0.179281	1.457212	-0.843482	-2.241133	10.641882	-6.254924	0.000000	0.000000	18.182186	4.504432	5.914467	-173.923291	-139.263422	-40.945847	14.280004	5.359989	5.721060	-10.202414	3.955515	-31.753031	522.692181	7.850145	8.128516	1.913214	-10.255106
3.101695	7.773722	4.483096	96.571121	0.266911	0.719100	0.594331	-0.340174	8.904225	1.002911	10.183075	0.177728	37.500249	-13.042037	0.000000	3.287167	-11.002612	-0.551313	21.222593	0.370404	46.814270	5.129589	0.000000	-0.221296	0.849731	-1.098335	-0.410970	1.130142	-1.166981	-0.363568	2.066036	-1.166981	-0.252920	2.066036	-0.961043	-0.205496	1.732771	-0.892397	-0.126449	1.316233	-0.823751	-1.580698	9.612326	-6.108611	0.000000	0.000000	17.544940	4.721838	5.783844	-171.001437	-133.947878	-42.159034	15.932068	5.678618	8.787750	-10.629665	6.359000	-37.397024	522.398144	9.037608	8.252888	4.714357	-11.279963
3.118644	7.133921	3.919356	96.272263	0.266878	0.721948	0.593816	-0.057879	8.161392	1.487136	9.899191	0.172773	36.534955	-13.236993	0.000000	3.029307	-10.146568	-1.072037	19.936897	0.347964	45.512615	4.502684	0.000000	-0.138232	0.774608	-1.060907	-0.256711	1.030229	-1.127214	-0.227102	1.883382	-1.127214	-0.157986	1.883382	-0.928294	-0.128363	1.579581	-0.861987	-0.078986	1.199868	-0.795680	-0.987380	8.762521	-5.900447	0.000000	0.000000	16.945566	4.801449	5.849952	-165.930879	-128.448830	-42.390216	17.633263	6.150386	12.331309	-10.848098	9.639392	-43.299560	521.275126	10.313214	9.310052	7.238222	-12.441053
3.135593	6.585617	3.454539	95.969202	0.266871	0.724475	0.593389	0.177837	7.530600	2.037786	9.689671	0.169117	35.592271	-13.514599	0.000000	2.810664	-9.421294	-1.625855	18.867578	0.329301	44.355052	4.100483	0.000000	-0.069523	0.716258	-1.016132	-0.129112	0.952623	-1.079640	-0.114220	1.741510	-1.079640	-0.079458	1.741510	-0.889116	-0.064559	1.460593	-0.825607	-0.039726	1.109484	-0.762099	-0.496598	8.102454	-5.651423	0.000000	0.000000	16.403593	4.775491	6.069929	-158.369375	-122.901251	-41.412426	19.298062	6.373899	16.021666	-9.964330	14.245981	-49.270974	521.022241	11.738179	11.299590	8.444747	-13.488396
3.152542	6.108292	3.126452	95.641271	0.266973	0.726643	0.593088	0.336820	6.996781	2.668832	9.562925	0.166905	34.723080	-13.869152	0.000000	2.594545	-8.813655	-2.235577	18.027260	0.314635	43.367677	3.930872	0.000000	-0.019820	0.670112	-0.943205	-0.036807	0.891250	-1.002155	-0.032562	1.629311	-1.002155	-0.022652	1.629311	-0.825304	-0.018405	1.366493	-0.766354	-0.011325	1.038004	-0.707404	-0.141570	7.580446	-5.245822	0.000000	0.000000	15.913433	4.670417	6.294459	-147.977475	-117.559574	-38.634429	20.926805	6.296438	19.462613	-7.942714	19.044865	-54.773160	525.206489	13.811402	11.204675	7.623167	-14.075054
3.169492	5.694823	2.929520	95.266951	0.267117	0.728506	0.592837	0.402923	6.543890	3.363404	9.486232	0.165566	33.930491	-14.249883	0.000000	2.352880	-8.305391	-2.903478	17.382257	0.303378	42.550694	3.952685	0.000000	0.012147	0.636077	-0.852795	0.022558	0.845982	-0.906094	0.019956	1.546557	-0.906094	0.013883	1.546557	-0.746195	0.011280	1.297087	-0.692896	0.006941	0.985283	-0.639596	0.086764	7.195425	-4.742988	0.000000	0.000000	15.459737	4.501032	6.591705	-135.612523	-112.817817	-33.502875	22.317549	4.894648	22.361432	-4.938317	26.143501	-59.910111	531.917413	15.628306	12.909571	6.453927	-14.294505
